<?xml version="1.0" encoding="utf-8"?>
<!-- Generator: Adobe Illustrator 16.0.0, SVG Export Plug-In . SVG Version: 6.00 Build 0)  -->
<!DOCTYPE svg PUBLIC "-//W3C//DTD SVG 1.1//EN" "http://www.w3.org/Graphics/SVG/1.1/DTD/svg11.dtd">
<svg version="1.1" id="Capa_1" xmlns="http://www.w3.org/2000/svg" xmlns:xlink="http://www.w3.org/1999/xlink" x="0px" y="0px"
	 width="64.234px" height="52.318px" viewBox="0 0 64.234 52.318" enable-background="new 0 0 64.234 52.318" xml:space="preserve">
<g>
	<path fill="#ffffff" d="M28.986,25.176V3.81c0-2.104-1.706-3.81-3.811-3.81H3.809C1.705,0,0,1.706,0,3.81v21.364
		c0,2.104,1.705,3.81,3.809,3.81h21.364C27.28,28.986,28.986,27.28,28.986,25.176z M8.548,25.011c-1.576,0-2.858-1.28-2.858-2.858
		c0-1.575,1.282-2.858,2.858-2.858c1.578,0,2.858,1.282,2.858,2.858C11.406,23.731,10.127,25.011,8.548,25.011z M8.548,17.389
		c-1.576,0-2.858-1.282-2.858-2.858c0-1.579,1.282-2.858,2.858-2.858c1.578,0,2.858,1.28,2.858,2.858
		C11.406,16.109,10.127,17.389,8.548,17.389z M8.548,9.767c-1.576,0-2.858-1.28-2.858-2.858c0-1.576,1.282-2.858,2.858-2.858
		c1.578,0,2.858,1.282,2.858,2.858C11.406,8.487,10.127,9.767,8.548,9.767z M19.981,25.011c-1.576,0-2.858-1.28-2.858-2.858
		c0-1.575,1.282-2.858,2.858-2.858c1.579,0,2.858,1.282,2.858,2.858C22.839,23.731,21.56,25.011,19.981,25.011z M19.981,17.389
		c-1.576,0-2.858-1.282-2.858-2.858c0-1.579,1.282-2.858,2.858-2.858c1.579,0,2.858,1.28,2.858,2.858
		C22.839,16.109,21.56,17.389,19.981,17.389z M19.981,9.767c-1.576,0-2.858-1.28-2.858-2.858c0-1.576,1.282-2.858,2.858-2.858
		c1.579,0,2.858,1.282,2.858,2.858C22.839,8.487,21.56,9.767,19.981,9.767z"/>
	<path fill="#ffffff" d="M63.191,30.639l-15.16-15.054c-1.491-1.482-3.904-1.473-5.387,0.019L27.59,30.764
		c-1.483,1.491-1.475,3.904,0.018,5.388l15.16,15.054c1.492,1.484,3.905,1.476,5.387-0.017l15.057-15.16
		C64.694,34.536,64.685,32.122,63.191,30.639z M44.497,21.812c1.111-1.118,2.924-1.125,4.043-0.014
		c1.119,1.112,1.124,2.923,0.014,4.042c-1.113,1.12-2.922,1.126-4.043,0.014C43.394,24.743,43.386,22.932,44.497,21.812z
		 M37.812,36.656c-1.111,1.12-2.921,1.127-4.041,0.015c-1.118-1.111-1.127-2.923-0.014-4.043c1.109-1.117,2.923-1.125,4.041-0.014
		C38.918,33.727,38.923,35.538,37.812,36.656z M39.126,27.22c1.113-1.119,2.925-1.124,4.042-0.014
		c1.119,1.111,1.126,2.923,0.014,4.042c-1.11,1.119-2.92,1.127-4.042,0.015C38.022,30.153,38.016,28.339,39.126,27.22z
		 M45.924,44.713c-1.112,1.119-2.921,1.126-4.042,0.014c-1.118-1.111-1.125-2.922-0.015-4.043c1.11-1.117,2.925-1.124,4.043-0.014
		C47.03,41.782,47.035,43.595,45.924,44.713z M51.295,39.305c-1.112,1.118-2.922,1.127-4.043,0.014
		c-1.117-1.11-1.124-2.923-0.014-4.042c1.112-1.12,2.923-1.125,4.042-0.015C52.401,36.374,52.407,38.185,51.295,39.305z
		 M56.666,33.897c-1.112,1.119-2.922,1.126-4.042,0.014c-1.119-1.111-1.127-2.923-0.015-4.042c1.111-1.118,2.924-1.126,4.042-0.015
		C57.772,30.966,57.777,32.778,56.666,33.897z"/>
</g>
</svg>
